# Blender v2.76 (sub 0) OBJ File: 'armor.blend'
# www.blender.org
mtllib armor.mtl
o Cube
v 0.432000 -0.487279 -0.084000
v 0.432000 -0.487279 0.024000
v -0.432000 -0.487279 0.024000
v -0.432000 -0.487279 -0.084000
v 0.432000 0.500000 -0.084000
v 0.432000 0.500000 0.024000
v -0.432000 0.500000 0.024000
v -0.432000 0.500000 -0.084000
v 0.432000 -0.487279 -0.030000
v 0.000000 -0.700000 -0.015269
v 0.432000 -0.100000 -0.084000
v -0.000000 -0.700000 0.092731
v 0.432000 -0.100000 0.024000
v -0.432000 -0.487279 -0.030000
v -0.432000 -0.100000 0.024000
v -0.432000 -0.100000 -0.084000
v 0.432000 0.500000 -0.030000
v 0.000000 0.445472 -0.015269
v -0.000000 0.445472 0.092731
v -0.432000 0.500000 -0.030000
v 0.000000 -0.100000 -0.015269
v -0.432000 -0.100000 -0.030000
v -0.000000 -0.100000 0.092731
v 0.432000 -0.100000 -0.030000
v -0.000000 0.445472 0.038731
v -0.000000 -0.700000 0.038731
v 0.432000 -0.487279 -0.003000
v -0.216000 -0.599890 -0.030000
v 0.432000 0.200000 -0.084000
v -0.216000 -0.599890 0.078000
v 0.432000 0.200000 0.024000
v -0.432000 -0.487279 -0.057000
v -0.432000 0.200000 0.024000
v -0.432000 0.200000 -0.084000
v 0.432000 0.500000 -0.003000
v -0.216000 0.469181 -0.030000
v -0.216000 0.469181 0.078000
v -0.432000 0.500000 -0.057000
v 0.432000 -0.487279 -0.057000
v 0.216000 -0.599890 -0.030000
v 0.432000 -0.400000 -0.084000
v 0.216000 -0.599890 0.078000
v 0.432000 -0.400000 0.024000
v -0.432000 -0.487279 -0.003000
v -0.432000 -0.400000 0.024000
v -0.432000 -0.400000 -0.084000
v 0.432000 0.500000 -0.057000
v 0.216000 0.469181 -0.030000
v 0.216000 0.469181 0.078000
v -0.432000 0.500000 -0.003000
v -0.216000 -0.100000 -0.030000
v 0.216000 -0.100000 -0.030000
v 0.000000 0.200000 -0.015269
v 0.000000 -0.400000 -0.015269
v -0.432000 -0.100000 -0.057000
v -0.432000 -0.100000 -0.003000
v -0.432000 -0.400000 -0.030000
v -0.432000 0.200000 -0.030000
v -0.216000 -0.100000 0.078000
v 0.216000 -0.100000 0.078000
v -0.000000 -0.400000 0.092731
v -0.000000 0.200000 0.092731
v 0.432000 -0.100000 -0.003000
v 0.432000 -0.100000 -0.057000
v 0.432000 -0.400000 -0.030000
v 0.432000 0.200000 -0.030000
v -0.000000 0.445472 0.065731
v 0.000000 0.445472 0.011731
v 0.216000 0.469181 0.024000
v -0.216000 0.469181 0.024000
v -0.216000 -0.599890 0.024000
v 0.216000 -0.599890 0.024000
v 0.000000 -0.700000 0.011731
v -0.000000 -0.700000 0.065731
v 0.216000 -0.599890 0.051000
v 0.216000 -0.599890 -0.003000
v -0.216000 -0.599890 -0.003000
v -0.216000 0.469181 -0.003000
v 0.216000 0.469181 -0.003000
v 0.216000 0.469181 0.051000
v 0.432000 0.200000 -0.057000
v 0.432000 -0.400000 -0.057000
v 0.432000 -0.400000 -0.003000
v 0.216000 0.200000 0.078000
v 0.216000 -0.400000 0.078000
v -0.216000 -0.400000 0.078000
v -0.432000 0.200000 -0.003000
v -0.432000 -0.400000 -0.003000
v -0.432000 -0.400000 -0.057000
v 0.216000 -0.400000 -0.030000
v 0.216000 0.200000 -0.030000
v -0.216000 0.200000 -0.030000
v -0.216000 -0.400000 -0.030000
v -0.432000 0.200000 -0.057000
v -0.216000 0.200000 0.078000
v 0.432000 0.200000 -0.003000
v -0.216000 0.469181 0.051000
v -0.216000 -0.599890 0.051000
v -0.000000 -1.272793 0.090000
v -0.000000 -1.272793 -0.090000
v 1.272792 -0.000000 -0.090000
v 1.272792 -0.000000 0.090000
v -1.272792 0.000000 0.090000
v -1.272792 0.000000 -0.090000
v 0.000000 1.272792 -0.090000
v 0.000000 1.272792 0.090000
v -1.145513 0.127279 -0.090000
v 0.127279 -1.145513 -0.090000
v -1.145513 0.127279 0.090000
v 0.127279 -1.145513 0.090000
v -0.129384 1.143408 -0.090000
v 1.143408 -0.129384 0.090000
v 1.143408 -0.129384 -0.090000
v -0.129384 1.143408 0.090000
v -0.127279 -1.145513 0.090000
v -0.127279 -1.145513 -0.090000
v 1.145513 0.127279 -0.090000
v 1.145513 0.127279 0.090000
v -0.000000 -1.018234 0.090000
v -0.000000 -1.018234 -0.090000
v 1.016129 -0.002105 0.090000
v 1.016129 -0.002105 -0.090000
v -1.140440 -0.132352 0.090000
v -1.140440 -0.132352 -0.090000
v 0.132352 1.140440 -0.090000
v 0.132352 1.140440 0.090000
v -1.013161 -0.005073 0.090000
v -1.013161 -0.005073 -0.090000
v 0.002968 1.011056 0.090000
v 0.002968 1.011056 -0.090000
vn -0.462300 -0.886700 -0.000000
vn 0.141300 0.990000 0.000000
vn 1.000000 0.000000 0.000000
vn -0.242500 -0.000000 0.970100
vn -1.000000 -0.000000 -0.000000
vn 0.242500 0.000000 -0.970100
vn -0.068000 0.000000 -0.997700
vn 0.068000 0.000000 0.997700
vn -0.109100 0.994000 0.000000
vn 0.420500 -0.907300 0.000000
vn 0.462300 -0.886700 0.000000
vn -0.420500 -0.907300 -0.000000
vn 0.109100 0.994000 0.000000
vn -0.141300 0.990000 0.000000
vn 0.242500 0.000000 0.970100
vn -0.068000 -0.000000 0.997700
vn -0.242500 0.000000 -0.970100
vn 0.068000 0.000000 -0.997700
vn -0.707100 -0.707100 0.000000
vn -0.000000 0.000000 -1.000000
vn 0.707100 0.707100 0.000000
vn 0.000000 0.000000 1.000000
vn 0.707100 -0.707100 0.000000
vn -0.707100 0.707100 0.000000
usemtl Material
s off
f 98//1 30//1 3//1 44//1
f 97//2 50//2 7//2 37//2
f 96//3 35//3 6//3 31//3
f 95//4 37//4 7//4 33//4
f 94//5 38//5 8//5 34//5
f 93//6 28//6 4//6 46//6
f 92//6 51//6 16//6 34//6
f 91//7 52//7 21//7 53//7
f 90//7 40//7 10//7 54//7
f 89//5 55//5 16//5 46//5
f 88//5 56//5 22//5 57//5
f 87//5 50//5 20//5 58//5
f 86//4 59//4 15//4 45//4
f 85//8 60//8 23//8 61//8
f 84//8 49//8 19//8 62//8
f 83//3 63//3 13//3 43//3
f 82//3 64//3 24//3 65//3
f 81//3 47//3 17//3 66//3
f 80//9 67//9 19//9 49//9
f 79//9 68//9 25//9 69//9
f 78//2 38//2 20//2 70//2
f 77//1 71//1 14//1 32//1
f 76//10 72//10 26//10 73//10
f 75//10 42//10 12//10 74//10
f 72//10 75//10 74//10 26//10
f 9//11 27//11 75//11 72//11
f 27//11 2//11 42//11 75//11
f 40//10 76//10 73//10 10//10
f 1//11 39//11 76//11 40//11
f 39//11 9//11 72//11 76//11
f 28//1 77//1 32//1 4//1
f 10//12 73//12 77//12 28//12
f 73//12 26//12 71//12 77//12
f 68//13 78//13 70//13 25//13
f 18//13 36//13 78//13 68//13
f 36//2 8//2 38//2 78//2
f 47//14 79//14 69//14 17//14
f 5//14 48//14 79//14 47//14
f 48//9 18//9 68//9 79//9
f 35//14 80//14 49//14 6//14
f 17//14 69//14 80//14 35//14
f 69//9 25//9 67//9 80//9
f 64//3 81//3 66//3 24//3
f 11//3 29//3 81//3 64//3
f 29//3 5//3 47//3 81//3
f 39//3 82//3 65//3 9//3
f 1//3 41//3 82//3 39//3
f 41//3 11//3 64//3 82//3
f 27//3 83//3 43//3 2//3
f 9//3 65//3 83//3 27//3
f 65//3 24//3 63//3 83//3
f 60//8 84//8 62//8 23//8
f 13//15 31//15 84//15 60//15
f 31//15 6//15 49//15 84//15
f 42//8 85//8 61//8 12//8
f 2//15 43//15 85//15 42//15
f 43//15 13//15 60//15 85//15
f 30//4 86//4 45//4 3//4
f 12//16 61//16 86//16 30//16
f 61//16 23//16 59//16 86//16
f 56//5 87//5 58//5 22//5
f 15//5 33//5 87//5 56//5
f 33//5 7//5 50//5 87//5
f 44//5 88//5 57//5 14//5
f 3//5 45//5 88//5 44//5
f 45//5 15//5 56//5 88//5
f 32//5 89//5 46//5 4//5
f 14//5 57//5 89//5 32//5
f 57//5 22//5 55//5 89//5
f 52//7 90//7 54//7 21//7
f 11//17 41//17 90//17 52//17
f 41//17 1//17 40//17 90//17
f 48//7 91//7 53//7 18//7
f 5//17 29//17 91//17 48//17
f 29//17 11//17 52//17 91//17
f 36//6 92//6 34//6 8//6
f 18//18 53//18 92//18 36//18
f 53//18 21//18 51//18 92//18
f 51//6 93//6 46//6 16//6
f 21//18 54//18 93//18 51//18
f 54//18 10//18 28//18 93//18
f 55//5 94//5 34//5 16//5
f 22//5 58//5 94//5 55//5
f 58//5 20//5 38//5 94//5
f 59//4 95//4 33//4 15//4
f 23//16 62//16 95//16 59//16
f 62//16 19//16 37//16 95//16
f 63//3 96//3 31//3 13//3
f 24//3 66//3 96//3 63//3
f 66//3 17//3 35//3 96//3
f 67//13 97//13 37//13 19//13
f 25//13 70//13 97//13 67//13
f 70//2 20//2 50//2 97//2
f 71//1 98//1 44//1 14//1
f 26//12 74//12 98//12 71//12
f 74//12 12//12 30//12 98//12
f 115//19 116//19 100//19 99//19
f 122//20 117//20 101//20 113//20
f 117//21 118//21 102//21 101//21
f 119//22 115//22 99//22 110//22
f 112//23 113//23 101//23 102//23
f 109//24 107//24 104//24 103//24
f 114//24 111//24 107//24 109//24
f 99//23 100//23 108//23 110//23
f 121//22 119//22 110//22 112//22
f 116//20 120//20 108//20 100//20
f 118//22 121//22 112//22 102//22
f 106//24 105//24 111//24 114//24
f 110//23 108//23 113//23 112//23
f 120//20 122//20 113//20 108//20
f 119//21 120//21 128//21 127//21
f 126//22 129//22 121//22 118//22
f 124//20 128//20 120//20 116//20
f 127//23 128//23 130//23 129//23
f 127//22 123//22 115//22 119//22
f 125//21 126//21 118//21 117//21
f 130//20 125//20 117//20 122//20
f 123//19 124//19 116//19 115//19
f 103//19 104//19 124//19 123//19
f 111//20 105//20 125//20 130//20
f 105//21 106//21 126//21 125//21
f 109//22 103//22 123//22 127//22
f 114//22 109//22 127//22 129//22
f 104//20 107//20 128//20 124//20
f 106//22 114//22 129//22 126//22
f 107//20 111//20 130//20 128//20
f 122//24 120//24 119//24 121//24
f 121//19 129//19 130//19 122//19
