# Blender v2.76 (sub 0) OBJ File: 'haste.blend'
# www.blender.org
mtllib haste.mtl
o Cube
v 0.118636 0.233460 -0.079153
v 0.118636 0.233460 0.079153
v -0.302741 -0.041114 0.079153
v -0.302741 -0.041114 -0.079153
v 0.245159 0.650762 -0.079153
v 0.245159 0.650762 0.079153
v -0.081671 0.650940 0.079153
v -0.081671 0.650940 -0.079153
v 0.228400 0.233460 -0.079153
v 0.228400 0.233460 0.079153
v -0.302741 -0.041114 0.079153
v -0.302741 -0.041114 -0.079153
v 0.228400 0.233460 -0.079153
v 0.228400 0.233460 0.079153
v -0.302741 -0.041114 0.079153
v -0.302741 -0.041114 -0.079153
v 0.390880 0.233460 -0.079153
v 0.390880 0.233460 0.079153
v -0.191009 -0.041114 0.079153
v -0.191009 -0.041114 -0.079153
v 0.393753 0.233478 -0.079153
v 0.393753 0.233478 0.079153
v -0.065955 -0.041114 0.079153
v -0.065955 -0.041114 -0.079153
v -0.256293 -0.702238 -0.079153
v -0.256293 -0.702238 0.079153
v -0.255957 -0.701930 0.079153
v -0.255957 -0.701930 -0.079153
v -0.000000 -1.272793 0.090000
v -0.000000 -1.272793 -0.090000
v 1.272792 -0.000000 -0.090000
v 1.272792 -0.000000 0.090000
v -1.272792 0.000000 0.090000
v -1.272792 0.000000 -0.090000
v 0.000000 1.272793 -0.090000
v 0.000000 1.272793 0.090000
v -1.145513 0.127279 -0.090000
v 0.127279 -1.145513 -0.090000
v -1.145513 0.127279 0.090000
v 0.127279 -1.145513 0.090000
v -0.129384 1.143408 -0.090000
v 1.143408 -0.129384 0.090000
v 1.143408 -0.129384 -0.090000
v -0.129384 1.143408 0.090000
v -0.127279 -1.145513 0.090000
v -0.127279 -1.145513 -0.090000
v 1.145513 0.127279 -0.090000
v 1.145513 0.127279 0.090000
v -0.000000 -1.018234 0.090000
v -0.000000 -1.018234 -0.090000
v 1.016129 -0.002105 0.090000
v 1.016129 -0.002105 -0.090000
v -1.140440 -0.132352 0.090000
v -1.140440 -0.132352 -0.090000
v 0.132352 1.140440 -0.090000
v 0.132352 1.140440 0.090000
v -1.013161 -0.005073 0.090000
v -1.013161 -0.005073 -0.090000
v 0.002968 1.011056 0.090000
v 0.002968 1.011056 -0.090000
vn 0.000000 0.000000 1.000000
vn 0.000500 1.000000 -0.000000
vn 0.957000 -0.290100 0.000000
vn -0.952600 0.304300 -0.000000
vn 0.000000 0.000000 -1.000000
vn 0.000000 1.000000 0.000000
vn 0.000000 -1.000000 0.000000
vn -0.961100 0.276300 0.000000
vn -0.006000 1.000000 0.000000
vn -0.675500 0.737400 0.000000
vn 0.821300 -0.570500 0.000000
vn -0.707100 -0.707100 0.000000
vn 0.707100 0.707100 0.000000
vn 0.707100 -0.707100 0.000000
vn -0.707100 0.707100 0.000000
usemtl Material
s off
f 3//1 4//1 12//1 11//1
f 5//2 8//2 7//2 6//2
f 1//3 5//3 6//3 2//3
f 2//1 6//1 7//1 3//1
f 3//4 7//4 8//4 4//4
f 5//5 1//5 4//5 8//5
f 11//1 12//1 16//1 15//1
f 2//1 3//1 11//1 10//1
f 4//5 1//5 9//5 12//5
f 1//6 2//6 10//6 9//6
f 15//7 16//7 20//7 19//7
f 10//1 11//1 15//1 14//1
f 12//1 9//1 13//1 16//1
f 9//1 10//1 14//1 13//1
f 19//7 20//7 24//7 23//7
f 14//1 15//1 19//1 18//1
f 16//5 13//5 17//5 20//5
f 13//6 14//6 18//6 17//6
f 23//8 24//8 28//8 27//8
f 18//1 19//1 23//1 22//1
f 20//5 17//5 21//5 24//5
f 17//9 18//9 22//9 21//9
f 25//10 26//10 27//10 28//10
f 22//1 23//1 27//1 26//1
f 24//5 21//5 25//5 28//5
f 21//11 22//11 26//11 25//11
f 45//12 46//12 30//12 29//12
f 52//5 47//5 31//5 43//5
f 47//13 48//13 32//13 31//13
f 49//1 45//1 29//1 40//1
f 42//14 43//14 31//14 32//14
f 39//15 37//15 34//15 33//15
f 44//15 41//15 37//15 39//15
f 29//14 30//14 38//14 40//14
f 51//1 49//1 40//1 42//1
f 46//5 50//5 38//5 30//5
f 48//1 51//1 42//1 32//1
f 36//15 35//15 41//15 44//15
f 40//14 38//14 43//14 42//14
f 50//5 52//5 43//5 38//5
f 49//13 50//13 58//13 57//13
f 56//1 59//1 51//1 48//1
f 54//5 58//5 50//5 46//5
f 57//14 58//14 60//14 59//14
f 57//1 53//1 45//1 49//1
f 55//13 56//13 48//13 47//13
f 60//5 55//5 47//5 52//5
f 53//12 54//12 46//12 45//12
f 33//12 34//12 54//12 53//12
f 41//5 35//5 55//5 60//5
f 35//13 36//13 56//13 55//13
f 39//1 33//1 53//1 57//1
f 44//1 39//1 57//1 59//1
f 34//5 37//5 58//5 54//5
f 36//1 44//1 59//1 56//1
f 37//5 41//5 60//5 58//5
f 52//15 50//15 49//15 51//15
f 51//12 59//12 60//12 52//12
