# Blender v2.76 (sub 0) OBJ File: 'half_cube.blend'
# www.blender.org
mtllib half_cube.mtl
o Cube_Cube.001
v -1.000000 -1.000000 1.000000
v -1.000000 -1.000000 -1.000000
v 1.000000 -1.000000 -1.000000
v 1.000000 -1.000000 1.000000
v -1.000000 1.000000 1.000000
v 1.000000 1.000000 1.000000
v -1.000000 0.999970 1.000000
v -1.000000 -0.999970 -1.000000
v 1.000000 -0.999970 -1.000000
v 1.000000 0.999970 1.000000
vn -1.000000 0.000000 0.000000
vn 0.000000 0.000000 -1.000000
vn 1.000000 0.000000 0.000000
vn 0.000000 0.000000 1.000000
vn 0.000000 -1.000000 0.000000
vn 0.000000 0.707100 -0.707100
usemtl None
s off
f 7//1 8//1 2//1 1//1
f 8//2 9//2 3//2 2//2
f 9//3 10//3 4//3 3//3
f 10//4 7//4 1//4 4//4
f 1//5 2//5 3//5 4//5
f 9//6 8//6 7//6 10//6
f 6//4 5//4 7//4 10//4
