# Blender v2.76 (sub 0) OBJ File: 'regeneration.blend'
# www.blender.org
mtllib regeneration.mtl
o Cube
v 0.018514 -0.119664 -0.054270
v 0.018514 -0.119664 0.054270
v -0.165616 -0.064466 0.054270
v -0.165616 -0.064466 -0.054270
v 0.073712 0.064466 -0.054270
v 0.073712 0.064466 0.054270
v -0.110418 0.119664 0.054270
v -0.110418 0.119664 -0.054270
v -0.000266 -0.177117 -0.054270
v -0.000266 -0.177117 0.054270
v -0.184396 -0.121919 0.054270
v -0.184396 -0.121919 -0.054270
v 0.073712 0.064466 -0.054270
v 0.073712 0.064466 0.054270
v -0.110418 0.119664 0.054270
v -0.110418 0.119664 -0.054270
v 0.147449 0.310440 -0.054270
v 0.147449 0.310440 0.054270
v -0.036681 0.365638 0.054270
v -0.036681 0.365638 -0.054270
v -0.084571 -0.246903 -0.019145
v -0.084571 -0.246903 0.019145
v -0.149527 -0.227430 0.019145
v -0.149527 -0.227430 -0.019145
v -0.115493 -0.350052 -0.019145
v -0.115493 -0.350052 0.019145
v -0.180449 -0.330580 0.019145
v -0.180449 -0.330580 -0.019145
v -0.145821 -0.378136 -0.007295
v -0.145821 -0.378136 0.007295
v -0.170572 -0.370716 0.007295
v -0.170572 -0.370716 -0.007295
v -0.239911 -0.682419 -0.007295
v -0.239911 -0.682419 0.007295
v -0.269382 -0.700329 0.007295
v -0.269382 -0.700329 -0.007295
v 0.155198 0.336289 -0.054270
v 0.155198 0.336289 0.054270
v -0.028932 0.391487 0.054270
v -0.028932 0.391487 -0.054270
v 0.206876 0.292625 -0.054270
v 0.206876 0.292625 0.054270
v 0.214625 0.318474 -0.054270
v 0.214625 0.318474 0.054270
v -0.095466 0.383260 0.054270
v -0.095466 0.383260 -0.054270
v -0.087717 0.409109 0.054270
v -0.087717 0.409109 -0.054270
v 0.147449 0.310440 0.054270
v -0.036681 0.365638 0.054270
v 0.155198 0.336289 0.054270
v -0.028932 0.391487 0.054270
v 0.206876 0.292625 0.054270
v 0.214625 0.318474 0.054270
v -0.095466 0.383260 0.054270
v -0.087717 0.409109 0.054270
v 0.147449 0.310440 0.087472
v -0.036681 0.365638 0.087472
v 0.155198 0.336289 0.087472
v -0.028932 0.391487 0.087472
v 0.206876 0.292625 0.087472
v 0.214624 0.318474 0.087472
v -0.095466 0.383260 0.087472
v -0.087717 0.409109 0.087472
v 0.147449 0.310440 -0.087472
v -0.036681 0.365638 -0.087472
v 0.155198 0.336289 -0.087472
v -0.028932 0.391487 -0.087472
v 0.206876 0.292625 -0.087472
v 0.214625 0.318474 -0.087472
v -0.095466 0.383260 -0.087472
v -0.087717 0.409109 -0.087472
v 0.111493 0.386970 -0.022414
v 0.111492 0.386970 0.022414
v 0.035446 0.409767 0.022414
v 0.035446 0.409767 -0.022414
v 0.197946 0.675361 -0.022414
v 0.197946 0.675361 0.022414
v 0.121899 0.698158 0.022414
v 0.121899 0.698158 -0.022414
v 0.204365 0.696775 -0.022414
v 0.204365 0.696775 0.022414
v 0.128318 0.719572 0.022414
v 0.128318 0.719572 -0.022414
v 0.284413 0.649441 -0.022414
v 0.284413 0.649441 0.022414
v 0.290832 0.670854 -0.022414
v 0.290832 0.670854 0.022414
v 0.036316 0.723814 0.022414
v 0.036316 0.723814 -0.022414
v 0.042735 0.745228 0.022414
v 0.042735 0.745228 -0.022414
v 0.000000 -1.272792 0.090000
v 0.000000 -1.272792 -0.090000
v 1.272793 -0.000000 -0.090000
v 1.272793 -0.000000 0.090000
v -1.272792 0.000000 0.090000
v -1.272792 0.000000 -0.090000
v 0.000000 1.272792 -0.090000
v 0.000000 1.272792 0.090000
v -1.145513 0.127279 -0.090000
v 0.127279 -1.145513 -0.090000
v -1.145513 0.127279 0.090000
v 0.127279 -1.145513 0.090000
v -0.129384 1.143408 -0.090000
v 1.143408 -0.129384 0.090000
v 1.143408 -0.129384 -0.090000
v -0.129384 1.143408 0.090000
v -0.127279 -1.145513 0.090000
v -0.127279 -1.145513 -0.090000
v 1.145513 0.127279 -0.090000
v 1.145513 0.127279 0.090000
v 0.000000 -1.018234 0.090000
v 0.000000 -1.018234 -0.090000
v 1.016129 -0.002105 0.090000
v 1.016129 -0.002105 -0.090000
v -1.140440 -0.132352 0.090000
v -1.140440 -0.132352 -0.090000
v 0.132352 1.140440 -0.090000
v 0.132352 1.140440 0.090000
v -1.013161 -0.005073 0.090000
v -1.013161 -0.005073 -0.090000
v 0.002968 1.011056 0.090000
v 0.002968 1.011056 -0.090000
vn -0.950500 0.310700 -0.000000
vn 0.000000 0.000000 1.000000
vn 0.957900 -0.287200 0.000000
vn -0.957900 0.287200 -0.000000
vn 0.000000 0.000000 -1.000000
vn -0.949500 -0.313800 -0.000000
vn 0.950500 -0.310700 0.000000
vn -0.103300 -0.344700 0.933000
vn -0.103300 -0.344700 -0.933000
vn 0.637700 -0.770300 0.000000
vn -0.971000 -0.239000 -0.000000
vn -0.090700 -0.302500 0.948800
vn -0.090700 -0.302500 -0.948800
vn 0.679400 -0.733700 0.000000
vn 0.519300 -0.854600 0.000000
vn 0.955400 -0.295400 0.000000
vn -0.273100 0.962000 -0.000000
vn 0.287200 0.957900 0.000000
vn -0.287200 -0.957900 -0.000000
vn 0.190300 0.634800 0.748900
vn 0.190300 0.634800 -0.748900
vn 0.757300 0.653100 0.000000
vn -0.707100 -0.707100 0.000000
vn 0.707100 0.707100 0.000000
vn 0.707100 -0.707100 0.000000
vn -0.707100 0.707100 0.000000
usemtl Material
s off
f 3//1 4//1 12//1 11//1
f 8//2 7//2 15//2 16//2
f 1//3 5//3 6//3 2//3
f 2//2 6//2 7//2 3//2
f 3//4 7//4 8//4 4//4
f 5//5 1//5 4//5 8//5
f 11//6 12//6 24//6 23//6
f 2//2 3//2 11//2 10//2
f 4//5 1//5 9//5 12//5
f 1//7 2//7 10//7 9//7
f 16//4 15//4 19//4 20//4
f 7//2 6//2 14//2 15//2
f 5//2 8//2 16//2 13//2
f 6//2 5//2 13//2 14//2
f 47//2 45//2 55//2 56//2
f 15//2 14//2 18//2 19//2
f 13//5 16//5 20//5 17//5
f 14//3 13//3 17//3 18//3
f 23//4 24//4 28//4 27//4
f 10//8 11//8 23//8 22//8
f 12//9 9//9 21//9 24//9
f 9//10 10//10 22//10 21//10
f 27//11 28//11 32//11 31//11
f 22//2 23//2 27//2 26//2
f 24//5 21//5 25//5 28//5
f 21//3 22//3 26//3 25//3
f 31//4 32//4 36//4 35//4
f 26//12 27//12 31//12 30//12
f 28//13 25//13 29//13 32//13
f 25//14 26//14 30//14 29//14
f 33//15 34//15 35//15 36//15
f 30//2 31//2 35//2 34//2
f 32//5 29//5 33//5 36//5
f 29//16 30//16 34//16 33//16
f 40//17 39//17 75//17 76//17
f 45//2 19//2 50//2 55//2
f 46//4 48//4 72//4 71//4
f 48//18 40//18 68//18 72//18
f 42//3 41//3 43//3 44//3
f 39//2 47//2 56//2 52//2
f 37//18 38//18 44//18 43//18
f 18//19 17//19 41//19 42//19
f 46//4 45//4 47//4 48//4
f 20//19 46//19 71//19 66//19
f 39//18 40//18 48//18 47//18
f 20//19 19//19 45//19 46//19
f 56//4 55//4 63//4 64//4
f 55//19 50//19 58//19 63//19
f 52//18 56//18 64//18 60//18
f 18//2 42//2 53//2 49//2
f 44//2 38//2 51//2 54//2
f 42//2 44//2 54//2 53//2
f 38//2 39//2 52//2 51//2
f 19//2 18//2 49//2 50//2
f 58//2 60//2 64//2 63//2
f 58//2 57//2 59//2 60//2
f 59//2 57//2 61//2 62//2
f 49//19 53//19 61//19 57//19
f 54//18 51//18 59//18 62//18
f 53//3 54//3 62//3 61//3
f 51//18 52//18 60//18 59//18
f 50//19 49//19 57//19 58//19
f 65//5 66//5 68//5 67//5
f 65//5 67//5 70//5 69//5
f 68//5 66//5 71//5 72//5
f 37//18 43//18 70//18 67//18
f 41//19 17//19 65//19 69//19
f 43//3 41//3 69//3 70//3
f 40//18 37//18 67//18 68//18
f 17//19 20//19 66//19 65//19
f 76//4 75//4 79//4 80//4
f 39//20 38//20 74//20 75//20
f 37//21 40//21 76//21 73//21
f 38//22 37//22 73//22 74//22
f 79//2 83//2 91//2 89//2
f 75//2 74//2 78//2 79//2
f 73//5 76//5 80//5 77//5
f 74//3 73//3 77//3 78//3
f 81//18 84//18 83//18 82//18
f 79//2 78//2 82//2 83//2
f 77//5 80//5 84//5 81//5
f 77//5 81//5 87//5 85//5
f 86//3 85//3 87//3 88//3
f 82//2 78//2 86//2 88//2
f 81//18 82//18 88//18 87//18
f 78//19 77//19 85//19 86//19
f 90//4 89//4 91//4 92//4
f 84//5 80//5 90//5 92//5
f 83//18 84//18 92//18 91//18
f 80//19 79//19 89//19 90//19
f 109//23 110//23 94//23 93//23
f 116//5 111//5 95//5 107//5
f 111//24 112//24 96//24 95//24
f 113//2 109//2 93//2 104//2
f 106//25 107//25 95//25 96//25
f 103//26 101//26 98//26 97//26
f 108//26 105//26 101//26 103//26
f 93//25 94//25 102//25 104//25
f 115//2 113//2 104//2 106//2
f 110//5 114//5 102//5 94//5
f 112//2 115//2 106//2 96//2
f 100//26 99//26 105//26 108//26
f 104//25 102//25 107//25 106//25
f 114//5 116//5 107//5 102//5
f 113//24 114//24 122//24 121//24
f 120//2 123//2 115//2 112//2
f 118//5 122//5 114//5 110//5
f 121//25 122//25 124//25 123//25
f 121//2 117//2 109//2 113//2
f 119//24 120//24 112//24 111//24
f 124//5 119//5 111//5 116//5
f 117//23 118//23 110//23 109//23
f 97//23 98//23 118//23 117//23
f 105//5 99//5 119//5 124//5
f 99//24 100//24 120//24 119//24
f 103//2 97//2 117//2 121//2
f 108//2 103//2 121//2 123//2
f 98//5 101//5 122//5 118//5
f 100//2 108//2 123//2 120//2
f 101//5 105//5 124//5 122//5
f 116//26 114//26 113//26 115//26
f 115//23 123//23 124//23 116//23
